<svg version="1.1" xmlns="http://www.w3.org/2000/svg" xmlns:xlink="http://www.w3.org/1999/xlink" width="674.36152" height="743.03238" viewBox="0,0,674.36152,743.03238"><g transform="translate(130.02257,174.3613)"><g data-paper-data="{&quot;isPaintingLayer&quot;:true}" fill="#000000" fill-rule="nonzero" stroke="none" stroke-width="0.5" stroke-linecap="butt" stroke-linejoin="miter" stroke-miterlimit="10" stroke-dasharray="" stroke-dashoffset="0" style="mix-blend-mode: normal"><path d="M0.34989,-141.46453l4.62893,-1.77842l4.58114,-1.89812l1.84362,0.02121l1.24124,-0.1983l12.47531,-0.73384l22.93845,-17.72517l0.31593,-0.41478l0.82814,-0.46928l0.62402,-0.4822l3.3298,-2.07937l1.59083,-0.5804l1.4733,-0.83487l3.74199,-1.18697l0.7717,-0.16246l0.89421,-0.32624l0.52062,0.02839l16.81347,-3.53968l3.90293,-0.42248l0.60173,0.06071l0.6456,-0.17449l1.41477,0.38237l6.31062,0.63672l3.7854,2.09193l2.94233,0.79522l1.37263,1.58936l1.83804,1.01576l1.38432,2.71539l2.82689,3.27325l1.92312,6.04409l0.66563,1.30565l-0.03774,0.6677l0.18337,0.57632l0.39063,3.90625v6l-0.39062,3.90625l-0.24977,0.78498l-0.05963,0.8216l-1.08806,3.77194l-8,20l-0.65525,1.25807l-0.54489,1.30965l-20.57777,38.21586l35.18617,-14.24202l0.54513,-0.15967l0.51418,-0.24142l51,-18l0.90989,-0.2223l0.87523,-0.3336l18.00594,-4.87661l11.14768,-8.70063l0.50949,-0.3216l0.45521,-0.3947l34,-24l0.49477,-0.28001l0.44597,-0.35258l25,-16l3.50069,-1.77667l1.95193,-0.52189l3.27837,-1.38829l1.88764,0.00704l1.5943,-0.42627l3.08076,0.44372l4.79225,0.01788l1.25091,0.8525l2.11514,0.30464l5.00715,4.54925l3.99861,2.72508l0.76282,1.60093l1.31255,1.19251l1.4547,4.61507l2.91005,6.10728l-0.31895,2.11303l0.45508,1.44376l-1.36635,4.59337l-0.46456,3.07768l-0.86838,1.40336l-0.5382,1.80931l-1.92278,2.31348h22.60259l2.37435,0.23743l2.3762,0.21807l28.37253,5.49146l1.37078,-0.27742l3.49271,1.4553l1.52483,0.45645l1.39064,0.75833l4.07339,1.69724l1.08614,1.11631l1.36741,0.74567l2.7308,3.46639l1.10459,1.13527l0.84995,1.34575l1.13875,1.44548l16.83287,0.73186l3.72189,0.53634l1.82131,0.13327l3.31027,1.71221l3.49899,1.2832l0.98344,0.9269l8.71303,-10.01998l1.78456,-1.68053l0.17955,-0.22444l0.46024,-0.37806l0.43361,-0.40833l0.24549,-0.1495l1.89418,-1.55593l4.02418,-2.68279l1.3902,-1.60971l2.31284,-0.62509l1.73966,-0.92419l8.66719,-2.49182l1.52642,0.1908l0.20702,-0.05595l0.56328,0.15224l8.97063,1.12133l2.15496,1.88559l2.76426,0.7471l5.90902,6.84202l0.43912,0.38423l0.06828,0.20328l1.00546,1.16422l2.73438,8.59375l0.19601,1.96014l0.76282,2.27113l-0.43896,1.58341l2.74909,2.67137l0.15895,0.76348l0.39861,0.42939l0.90062,5.81117l0.85621,4.11263l-0.12375,0.61349l0.10597,0.68378l-0.91837,3.58846l0.24293,0.15343l2.97602,2.89558l2.90635,1.92797l2.4618,5.97865l2.48679,5.9683l-0.69182,3.41838l-0.05687,4.15185l-0.86469,3.82932l-1,3l-0.65635,1.46417l-0.52604,1.89748l-2.95192,3.6899l-1.1927,1.63649c-0.57158,1.61597 -1.1258,3.29694 -1.62629,5.07478c-0.25813,0.91693 1.14507,-1.52996 1.81391,-2.20823c1.39025,-1.40986 2.78788,-2.8252 4.33402,-4.06212c2.51605,-2.01284 7.56544,-3.55889 10.48157,-4.36732c3.33746,-0.92524 6.56484,2.05171 9.73551,1.96785c3.36831,-0.08909 6.39347,-2.81373 9.75834,-2.63739c11.11091,0.58229 16.49729,3.39926 21.875,12.5c1.67497,2.83457 3.06914,8.65242 3.125,12.5c0.07502,5.1675 1.10602,18.61712 -0.39062,26.90625c-1.4963,8.28718 -4.43465,13.77038 -6.46347,23.58445c-0.23068,1.11586 0.77349,2.15798 0.95015,3.28365c0.28465,1.81377 -0.09405,3.67603 -0.3113,5.4991c-1.058,8.87853 -2.96516,17.66851 -3.5123,26.59311c-0.03979,0.64897 1.26283,-0.49744 1.90706,-0.40963c1.1315,0.15423 2.23334,0.51966 3.29261,0.94631c2.30768,0.92947 11.86974,4.30067 13.52122,6.4287c5.11726,6.59387 7.65651,13.15735 6.99601,21.37698c-0.30637,3.81258 -2.9958,7.51642 -2.21017,11.25974c0.40479,1.92873 3.26201,2.24542 4.67513,3.61907c2.28501,2.22119 2.84239,7.69323 3.54567,10.78726c1.85537,8.16255 -4.45722,14.13602 -5.6218,21.61732c-0.17361,1.11529 1.3747,1.80732 1.87831,2.81747c1.34126,2.69028 1.33883,5.87633 1.64734,8.86655c0.59185,5.73652 -1.43571,14.99757 -2.0969,19.92454c-2.01766,15.03487 -9.65819,31.00317 -14.50119,43.75228c-6.85106,18.0353 -13.99667,34.83001 -22.12316,51.87409c-1.54653,3.24362 -1.92314,7.33306 -3.48361,10.74922c-3.90094,8.53986 -7.878,17.05169 -11.9917,25.49575c2.68433,4.57823 6.22762,10.42769 7.6024,15.83217c1.23755,4.865 1.68535,9.96916 3.51455,14.64396c0.73352,1.87463 5.10559,5.15283 5.9022,7.65645c1.08986,3.42529 1.28365,8.16472 1.27357,11.7364c-0.04451,15.76139 -0.2855,31.52549 0,47.28435c0.02311,1.27564 3.32523,5.66588 3.58177,6.47215c0.71287,2.24046 0.26307,4.69499 0.41823,7.04101c0.34898,5.27659 -2.8061,8.97294 -3,14.10714c-0.76601,20.28316 0.04707,40.59529 0,60.89286c-0.01351,5.82659 -2.14778,10.94578 -5.61476,15.38288c-1.54866,1.98199 -2.56684,4.85523 -4.93211,5.71087c-2.8338,1.02513 -10.22685,3.49531 -13.42482,3.62833c-2.15193,0.08951 -4.25238,-0.69995 -6.35603,-1.16201c-1.10188,-0.24202 -7.20679,-0.58609 -9.1254,-2.46632c-10.30879,-10.10261 -10.40654,-17.03257 -11.46052,-31.01761c-0.20811,-2.7614 0.5397,-8.15165 -0.08636,-9.54205c-1.1942,-2.65216 -2.65851,2.89045 -3.09411,4.39361c-1.17643,4.0596 -2.47397,8.17625 -3.75124,12.19053c-1.57204,4.9407 -6.36589,14.7637 -11.67062,16.19741c-4.10903,1.11055 -8.29133,1.95038 -12.48403,2.68435c-3.49126,0.61118 -11.519,-2.81981 -14.45312,-3.90625c-0.50677,-0.18765 -0.687,-1.40787 -1.15499,-1.13766c-5.03356,2.90627 -6.97906,4.77138 -13.26689,6.04391c-2.16514,0.43818 -4.41506,0.48244 -6.61886,0.33046c-0.2827,-0.0195 -5.27644,-1.61283 -5.28873,-1.56453c-3.43345,13.50186 -3.46893,30.70816 -16.93432,37.91432c-1.00746,0.53915 -1.64694,1.7484 -2.75002,2.04652c-3.46064,0.93531 -8.31331,0.72092 -11.75847,0.67177c-0.00507,-0.00007 -0.3942,1.71468 -0.44492,1.90278c-0.42882,1.59029 -1.10049,3.10708 -1.74363,4.62342c-1.85479,4.37312 -6.92,12.17733 -11.66317,13.19515c-3.24852,0.69709 -11.36466,2.71808 -14.88985,1.56336c-3.92013,-1.28408 -7.81389,-2.68378 -11.57486,-4.3783c-1.7825,-0.80311 -4.27742,-5.41646 -4.80459,-6.19352c-3.40932,-5.02546 -4.84944,-10.50583 -4.55278,-16.68447c0.05974,-1.24423 -1.89578,1.61699 -2.81829,2.45403c-0.58535,0.53112 -1.18811,1.04294 -1.79456,1.54984c-3.18517,2.66235 -7.05585,4.65427 -11.07363,5.69869c-10.50196,2.72997 -21.6051,-0.90682 -28.5081,-9.6764c-1.20115,-1.52594 -1.47477,-3.59307 -2.20637,-5.39197c-8.64227,-21.25022 -9.01825,-25.04446 -14.14494,-49.82293c-0.48536,-2.34586 -0.53903,-4.86725 -0.64256,-7.24527c-0.06938,-1.59376 -2.97142,-1.17246 -4.40034,-1.88172c-0.38073,-0.18898 -0.86834,-1.06926 -1.06931,-0.69472c-7.8828,14.69118 -15.50448,29.52114 -23.3285,44.24371c-2.74229,5.16021 -7.88465,12.85869 -12.6611,16.43352c-0.65907,0.49326 -1.6355,0.30188 -2.38409,0.64435c-3.98248,1.82192 -8.18918,3.7977 -12.56853,3.8273c-2.44465,0.01652 -4.54545,-1.81204 -6.87353,-2.55811c-2.32808,-0.74607 -5.1004,-0.47917 -7.08009,-1.91354c-14.57747,-10.56199 -11.76366,-32.84784 -5.34491,-47.35287c2.57847,-5.82681 6.20598,-11.27423 7.84432,-17.43183c0.52951,-1.99015 -2.88826,2.93696 -4.36862,4.36862c-1.73675,1.67961 -3.43498,2.95595 -4.81926,4.95343c-4.41992,6.37785 -11.14447,10.94916 -16.89425,15.97691c-2.76144,2.41467 -6.34569,2.00188 -9.14047,4.02422c-16.37146,11.84662 -33.54138,24.33982 -53.92079,27.88228c-21.81299,3.79166 -28.98525,-12.70344 -30.75,-30.75373c-0.39814,-4.07228 -0.19714,-9.18677 -0.15291,-12.76079c0.00586,-0.47317 0.54104,-1.1594 0.14126,-1.41258c-0.01931,-0.01223 -2.78479,1.08383 -3.14368,1.1065c-2.00368,0.12655 -8.81582,0.53376 -11.35479,0.07349c-1.1738,-0.21279 -6.92648,-2.86036 -7.64855,-2.82589c-24.48771,1.16901 -27.31672,5.06185 -50.30874,6.73221l-0.58463,0.13321c-5.95402,0.74425 -12.9929,2.23304 -19.00712,0.80243c-7.57558,-1.80201 -13.09075,-4.21053 -17.51554,-11.36998c-1.28217,-2.07459 -2.22795,-4.12854 -2.87358,-6.1505c-0.51843,0.27558 -1.11784,0.47962 -1.54868,0.85779c-1.92701,1.69146 -3.39936,3.91873 -5.52635,5.35064c-1.7919,1.20632 -8.08398,1.51452 -9.63089,1.70054c-1.54691,0.18602 -7.73267,1.37834 -9.75948,0.63124c-7.9865,-2.94391 -13.99772,-8.4317 -16.78913,-16.56225c-5.814,-16.93451 -15.5873,-33.28486 -16.32132,-51.17456c-1.2511,-30.49227 -1.60087,-61.02485 -1.37966,-91.5484c-2.47702,-12.87216 -0.77029,-30.5207 1.2478,-43.28758c1.47268,-15.07938 4.41322,-30.05833 6.30234,-45.10359c0.72893,-5.80531 2.00382,-11.50929 3.50437,-17.17066c-2.44018,-2.04638 -5.08971,-3.88992 -7.05146,-6.37887c-0.7078,-0.89802 -0.46894,-2.2447 -0.84438,-3.32473c-1.09545,-3.15134 -4.21887,-5.72871 -5.37671,-9.03745c-0.69804,-1.99478 -0.32515,-4.21525 -0.40803,-6.32701c-0.42774,-10.89825 -0.58074,-21.80568 -0.93447,-32.70659c-0.17226,-5.30848 0.83084,-10.41321 3.01081,-15.25747c7.89736,-17.54923 7.10442,-18.24221 13.01161,-28.31432c2.45665,-4.18873 5.3274,-7.97228 8.52839,-11.38607l-0.8006,-0.19725l-0.79051,-0.05784l-2.45772,0.2834l-2.06153,-0.61407l-2.14531,-0.15697l-2.19746,-1.13662l-4.47821,-1.33393l-1.44711,-1.76476l-2.92577,-2.39381l-2.36015,-2.36015l-0.88144,-0.30712l-1.68838,-2.2627l-0.07003,-0.07003l-2.48592,-3.03835l-0.53444,-1.03326l-2.01196,-2.69636l-0.53967,-2.2368l-1.05713,-2.04378l-0.24551,-3.35531l-0.27284,-1.13084l-0.11132,-3.92415l0.00706,-0.09878l-0.20602,-2.81567l0.46496,-0.80937l0.73401,-10.27618l0.36893,-2.13673l0.31397,-2.14549l8,-32l0.76613,-2.13423l0.72827,-2.14745l15,-33l1.09408,-1.88324l1.04687,-1.90989l24,-35l1.48356,-1.75869l0.89466,-1.09347l8.04614,-15.51756l0.81074,-1.2428l0.05536,-0.13362l0.65047,-0.94837l0.62833,-0.96318l0.10238,-0.10217l0.8393,-1.22369l27,-32l1.51534,-1.47018l1.47018,-1.51534l32,-27l1.03659,-0.71098zM-29.76629,82.80207c0.10483,-0.47755 0.2095,-0.95462 0.31398,-1.43122l-1.83522,1.0373c0.5097,0.12697 1.01688,0.25835 1.52124,0.39392z"/></g></g></svg>